<?xml version="1.0" encoding="utf-8"?>
<!-- Generator: Adobe Illustrator 24.3.0, SVG Export Plug-In . SVG Version: 6.00 Build 0)  -->
<svg version="1.1" id="Layer_1" xmlns="http://www.w3.org/2000/svg" xmlns:xlink="http://www.w3.org/1999/xlink" x="0px" y="0px"
	 viewBox="0 0 174.462 45" style="enable-background:new 0 0 174.462 45;" xml:space="preserve">
<style type="text/css">
	.st0{fill:#BCBCBC;}
</style>
<g>
	<path class="st0" d="M0,39.794V0.462h9.195v16.321l6.87-16.321h9.399l-8.531,17.215l8.735,22.118h-9.654l-4.828-14.226
		l-1.992,3.754v10.472H0z"/>
	<path class="st0" d="M55.885,39.794V0.462h9.577L73.1,24.725c-0.307-4.086-0.533-7.611-0.677-10.573
		c-0.145-2.963-0.217-5.466-0.217-7.509V0.462h8.199v39.333h-9.603L63.113,14.79c0.34,3.252,0.6,6.407,0.779,9.463
		c0.179,3.056,0.268,6.023,0.268,8.901v6.64H55.885z"/>
	<path class="st0" d="M91.285,39.794V23.116L82.244,0.462h9.885L95.934,12.9l3.831-12.438h9.986l-9.041,22.655v16.678H91.285z"/>
	<path class="st0" d="M111.591,39.794V0.462h21.403v7.637h-12.26v7.228h11.315v7.892h-11.315V31.8h12.26v7.994H111.591z"/>
	<path class="st0" d="M140.248,19.45V4.144h-3.552V0.456h11.742v3.688H144.7V19.45H140.248z"/>
	<path class="st0" d="M148.975,9.953c0-2.286,0.082-3.955,0.247-5.007c0.165-1.052,0.436-1.875,0.814-2.467
		c0.543-0.839,1.254-1.462,2.134-1.869c0.88-0.407,1.936-0.611,3.17-0.611c1.242,0,2.296,0.203,3.163,0.611
		c0.867,0.407,1.572,1.03,2.115,1.869c0.395,0.601,0.674,1.427,0.839,2.479c0.165,1.053,0.247,2.718,0.247,4.995
		c0,2.269-0.082,3.932-0.247,4.989c-0.164,1.057-0.444,1.885-0.839,2.485c-0.534,0.831-1.239,1.451-2.115,1.862
		c-0.876,0.411-1.93,0.617-3.163,0.617c-1.234,0-2.29-0.206-3.17-0.617c-0.88-0.411-1.591-1.032-2.134-1.862
		c-0.378-0.592-0.649-1.414-0.814-2.467C149.057,13.908,148.975,12.239,148.975,9.953z M157.164,11.668V8.239
		c0-2.105-0.134-3.406-0.401-3.903c-0.267-0.497-0.75-0.746-1.449-0.746c-0.683,0-1.156,0.255-1.419,0.765
		c-0.263,0.51-0.394,1.805-0.394,3.885v3.429c0,2.056,0.131,3.345,0.394,3.866c0.263,0.522,0.744,0.783,1.443,0.783
		c0.691,0,1.168-0.255,1.431-0.765C157.033,15.043,157.164,13.748,157.164,11.668z"/>
	<path class="st0" d="M140.247,39.794V24.489h-3.552v-3.688h11.742v3.688H144.7v15.306H140.247z"/>
	<path class="st0" d="M149.59,39.794V20.801h4.44v7.178h3.565v-7.178h4.341v18.994h-4.341v-7.881h-3.565v7.881H149.59z"/>
	<path class="st0" d="M164.126,39.794V20.801h10.335v3.688h-5.92v3.49h5.464v3.811h-5.464v4.144h5.92v3.86H164.126z"/>
</g>
<polygon class="st0" points="34.36,39.783 39.443,7.443 44.194,39.794 53.33,39.794 44.851,0.462 33.919,0.462 25.338,39.794 
	34.533,39.794 "/>
<path class="st0" d="M43.131,41.022c0,2.197-1.781,3.978-3.977,3.978c-2.197,0-3.978-1.781-3.978-3.978
	c0-2.196,1.781-3.978,3.978-3.978C41.35,37.045,43.131,38.826,43.131,41.022z"/>
</svg>
